<svg xmlns="http://www.w3.org/2000/svg" width="251" height="411" fill="none">
  <g filter="url(#a)">
    <g clip-path="url(#b)">
      <rect width="251" height="411" fill="url(#c)" rx="25" />
      <g filter="url(#d)">
        <path fill="url(#e)" fill-rule="evenodd" d="M704.591 685.3c-38.954 82.145-127.036 125.249-193.778 186.944-59.562 55.058-105.47 127.591-180.289 158.836-74.345 31.05-157.92 7.97-238.077 15.88-91.311 9.01-184.47 68.27-269.656 34.21-84.219-33.68-122.212-131.365-168.513-209.413-43.123-72.691-78.205-149.151-93.528-232.299-15.215-82.571-22.078-169.183 4.89-248.711 26.395-77.836 89.211-135.337 145.609-195.097 54.214-57.445 109.028-114.694 179.801-149.708C-36.895 10.294 43.28 2.553 122.947-8.03c90.328-12 191.893-60.192 269.625-12.656 79.174 48.418 59.196 176.267 116.869 249.011 59.766 75.384 184.287 90.011 222.08 178.507 37.076 86.82 13.536 193.139-26.93 278.469Z" clip-rule="evenodd" />
      </g>
      <g filter="url(#f)">
        <path fill="url(#g)" fill-rule="evenodd" d="M167.712-1070.22c110.217 20.18 188.957 107.887 283.322 165.783 84.212 51.667 185.09 82.616 245.559 158.697 60.086 75.598 58.337 177.673 92.563 266.72 38.989 101.436 138.612 190.161 124.233 297.313C899.173-75.771 794.164-3.66 715.196 72.132 641.648 142.72 561.11 205.255 466.471 247.236c-93.982 41.689-195.375 75.047-298.759 67.749-101.185-7.142-189.323-61.798-278.177-108.472-85.413-44.866-170.777-90.475-234.499-160.83-64.876-71.631-98.909-160.748-136.183-248.445-42.261-99.433-131.251-201.006-98.464-303.634 33.395-104.53 192.37-119.447 261.484-206.639 71.623-90.356 50.616-236.619 144.702-305.795 92.303-67.86 226.647-72.37 341.137-51.39Z" clip-rule="evenodd" />
      </g>
      <g filter="url(#h)">
        <path fill="#fff" fill-opacity=".7" d="M-415-335H665V745H-415z" />
      </g>
    </g>
  </g>
  <defs>
    <filter id="a" width="451" height="611" x="-100" y="-100" color-interpolation-filters="sRGB" filterUnits="userSpaceOnUse">
      <feFlood flood-opacity="0" result="BackgroundImageFix" />
      <feGaussianBlur in="BackgroundImageFix" stdDeviation="50" />
      <feComposite in2="SourceAlpha" operator="in" result="effect1_backgroundBlur_102_417" />
      <feBlend in="SourceGraphic" in2="effect1_backgroundBlur_102_417" result="shape" />
    </filter>
    <filter id="d" width="1802.68" height="1732.86" x="-752.632" y="-341.238" color-interpolation-filters="sRGB" filterUnits="userSpaceOnUse">
      <feFlood flood-opacity="0" result="BackgroundImageFix" />
      <feBlend in="SourceGraphic" in2="BackgroundImageFix" result="shape" />
      <feGaussianBlur result="effect1_foregroundBlur_102_417" stdDeviation="150" />
    </filter>
    <filter id="f" width="2101.51" height="1997.29" x="-886.714" y="-1381.3" color-interpolation-filters="sRGB" filterUnits="userSpaceOnUse">
      <feFlood flood-opacity="0" result="BackgroundImageFix" />
      <feBlend in="SourceGraphic" in2="BackgroundImageFix" result="shape" />
      <feGaussianBlur result="effect1_foregroundBlur_102_417" stdDeviation="150" />
    </filter>
    <filter id="h" width="1240" height="1240" x="-495" y="-415" color-interpolation-filters="sRGB" filterUnits="userSpaceOnUse">
      <feFlood flood-opacity="0" result="BackgroundImageFix" />
      <feGaussianBlur in="BackgroundImageFix" stdDeviation="40" />
      <feComposite in2="SourceAlpha" operator="in" result="effect1_backgroundBlur_102_417" />
      <feBlend in="SourceGraphic" in2="effect1_backgroundBlur_102_417" result="shape" />
    </filter>
    <linearGradient id="c" x1="-26.076" x2="382.788" y1="-31.759" y2="66.534" gradientUnits="userSpaceOnUse">
      <stop offset=".006" stop-color="#fff" stop-opacity=".4" />
      <stop offset="1" stop-color="#fff" stop-opacity=".09" />
    </linearGradient>
    <linearGradient id="e" x1="714.444" x2="-434.443" y1="684.777" y2="387.655" gradientUnits="userSpaceOnUse">
      <stop stop-color="#FF613F" />
      <stop offset="1" stop-color="#EB00FF" />
    </linearGradient>
    <linearGradient id="g" x1="164.041" x2="164.041" y1="-1081.3" y2="315.993" gradientUnits="userSpaceOnUse">
      <stop stop-color="#3FE8FF" />
      <stop offset="1" stop-color="#52FF00" />
    </linearGradient>
    <clipPath id="b">
      <rect width="251" height="411" fill="#fff" rx="25" />
    </clipPath>
  </defs>
</svg>

