<svg xmlns="http://www.w3.org/2000/svg" width="640" height="638" fill="none">
  <g clip-path="url(#a)">
    <rect width="640" height="638" fill="#0C2133" fill-opacity=".11" rx="60"/>
    <g clip-path="url(#b)">
      <rect width="3061.09" height="3670.91" x="-1211" y="-1682" fill="#282828" rx="244.727"/>
      <g clip-path="url(#c)">
        <path fill="#fff" d="M-1211-1682h3059.09v3670.91H-1211z"/>
        <g filter="url(#d)">
          <path fill="#7F30FF" d="M1721.92-421.119c498.13 116.808 533.5-385.257 932.74-454.135 1418.28-244.686 1552.82 3169.554 93.5 3684.284C1367.51 3296.01-54.508 496.056-54.508 496.056s-274.808-741.814 0-1041.839c248.006-270.765 571.424-257.65 926.059-162.509 280.179 75.166 567.939 220.946 850.369 287.173Z"/>
        </g>
        <g filter="url(#e)">
          <path fill="#00B0FF" d="M-4750.75-3139.18c733.24 172.02 785.3-567.36 1372.98-668.79 2087.69-360.35 2285.73 4667.71 137.62 5425.74-2032.3 717.17-4125.49-3406.25-4125.49-3406.25s-404.51-1092.45 0-1534.29c365.07-398.75 841.13-379.43 1363.15-239.32 412.43 110.69 836.01 325.38 1251.74 422.91Z"/>
        </g>
        <g filter="url(#f)">
          <ellipse cx="-179.419" cy="3342.75" fill="#0038FF" rx="2475.66" ry="2472.89"/>
        </g>
        <g filter="url(#g)">
          <path fill="#FF4880" d="M-4118.33 1388.94c-277.4 829.42-398.77 1461.46 0 2239.72 777.46 1517.33 3561.783 1505.35 4362.144 0C876.406 2438.86-47.101 1482.58-719.292 314.74-1015.89-200.564-1092.81-629.982-1612.65-917.908-2775.91-1562.21-3696.26 126.972-4118.33 1388.94Z"/>
        </g>
        <g filter="url(#h)">
          <ellipse cx="-4628.96" cy="3672.65" fill="#FF8000" rx="1973.88" ry="1971.11"/>
        </g>
      </g>
    </g>
  </g>
  <defs>
    <filter id="d" width="9503.45" height="9298.3" x="-2948.95" y="-3660.08" color-interpolation-filters="sRGB" filterUnits="userSpaceOnUse">
      <feFlood flood-opacity="0" result="BackgroundImageFix"/>
      <feBlend in="SourceGraphic" in2="BackgroundImageFix" result="shape"/>
      <feGaussianBlur result="effect1_foregroundBlur_9_5831" stdDeviation="1386.15"/>
    </filter>
    <filter id="e" width="11372" height="11072.6" x="-10317.7" y="-6598.73" color-interpolation-filters="sRGB" filterUnits="userSpaceOnUse">
      <feFlood flood-opacity="0" result="BackgroundImageFix"/>
      <feBlend in="SourceGraphic" in2="BackgroundImageFix" result="shape"/>
      <feGaussianBlur result="effect1_foregroundBlur_9_5831" stdDeviation="1386.15"/>
    </filter>
    <filter id="f" width="10495.9" height="10490.4" x="-5427.38" y="-1902.45" color-interpolation-filters="sRGB" filterUnits="userSpaceOnUse">
      <feFlood flood-opacity="0" result="BackgroundImageFix"/>
      <feBlend in="SourceGraphic" in2="BackgroundImageFix" result="shape"/>
      <feGaussianBlur result="effect1_foregroundBlur_9_5831" stdDeviation="1386.15"/>
    </filter>
    <filter id="g" width="10374" height="11366.4" x="-7146.21" y="-3831.97" color-interpolation-filters="sRGB" filterUnits="userSpaceOnUse">
      <feFlood flood-opacity="0" result="BackgroundImageFix"/>
      <feBlend in="SourceGraphic" in2="BackgroundImageFix" result="shape"/>
      <feGaussianBlur result="effect1_foregroundBlur_9_5831" stdDeviation="1386.15"/>
    </filter>
    <filter id="h" width="9492.36" height="9486.81" x="-9375.14" y="-1070.76" color-interpolation-filters="sRGB" filterUnits="userSpaceOnUse">
      <feFlood flood-opacity="0" result="BackgroundImageFix"/>
      <feBlend in="SourceGraphic" in2="BackgroundImageFix" result="shape"/>
      <feGaussianBlur result="effect1_foregroundBlur_9_5831" stdDeviation="1386.15"/>
    </filter>
    <clipPath id="a">
      <rect width="640" height="638" fill="#fff" rx="60"/>
    </clipPath>
    <clipPath id="b">
      <rect width="3061.09" height="3670.91" x="-1211" y="-1682" fill="#fff" rx="244.727"/>
    </clipPath>
    <clipPath id="c">
      <path fill="#fff" d="M-1211-1682h3059.09v3670.91H-1211z"/>
    </clipPath>
  </defs>
</svg>
