<svg width="64" height="64" fill="none" xmlns="http://www.w3.org/2000/svg"><path d="M24.77 23.37h-7.01v5.58h6.55c1.17 0 2.18-.3 2.18-2.99 0-2.69-1.72-2.59-1.72-2.59ZM24.77 33.02h-7v7.1h6.59c1.02 0 2.95-.4 2.95-3.45.05-3.6-2.54-3.65-2.54-3.65Z" fill="#fff"/><path d="M47.91.03H16.04C7.2.03 0 7.23 0 16.06V48c0 8.78 7.2 15.98 16.04 15.98h31.92c8.83 0 16.04-7.2 16.04-16.03V16.06A16.15 16.15 0 0 0 47.91.03Zm-10.35 20.3h10.66v2.53H37.56v-2.53Zm-4.98 16.7c0 7.91-7.81 8.17-7.81 8.17H12.18V18.8H24.71c3.91 0 7.01 2.24 7.01 6.9 0 4.68-3.75 4.93-3.75 4.93 4.97-.05 4.61 6.4 4.61 6.4Zm19.14-.46H38.88c0 5.07 4.36 4.67 4.36 4.67 4.11 0 3.96-2.64 3.96-2.64h4.37c0 7.1-8.48 6.8-8.48 6.8-10.15 0-9.5-10-9.5-10s0-10.05 9.5-10.05c10-.05 8.63 11.22 8.63 11.22Z" fill="#fff"/><path d="M43.2 29c-3.82 0-4.37 4.02-4.37 4.02h8.12S47 29 43.19 29Z" fill="#fff"/></svg>
