<svg width="32" height="32" viewBox="0 0 32 32" fill="none" xmlns="http://www.w3.org/2000/svg">
<mask id="mask0_47_4117" style="mask-type:alpha" maskUnits="userSpaceOnUse" x="4" y="4" width="24" height="24">
<path fill-rule="evenodd" clip-rule="evenodd" d="M17.4142 13.5253C16.6332 14.3064 15.3668 14.3064 14.5858 13.5253L10.1664 9.1059C9.87349 8.81301 9.39861 8.81301 9.10572 9.1059C8.81283 9.39879 8.81283 9.87367 9.10572 10.1666L13.5251 14.586C14.3062 15.367 14.3062 16.6334 13.5251 17.4144L9.10572 21.8338C8.81282 22.1267 8.81282 22.6016 9.10572 22.8945C9.39861 23.1874 9.87348 23.1874 10.1664 22.8945L14.5858 18.4751C15.3668 17.694 16.6332 17.694 17.4142 18.4751L21.8336 22.8945C22.1265 23.1874 22.6014 23.1874 22.8943 22.8945C23.1872 22.6016 23.1872 22.1267 22.8943 21.8338L18.4749 17.4144C17.6938 16.6334 17.6938 15.367 18.4749 14.586L22.8943 10.1666C23.1872 9.87367 23.1872 9.39879 22.8943 9.1059C22.6014 8.81301 22.1265 8.81301 21.8336 9.1059L17.4142 13.5253Z" fill="black"/>
</mask>
<g mask="url(#mask0_47_4117)">
<rect x="4" y="4" width="24" height="24" fill="#0C2133" fill-opacity="0.78"/>
</g>
</svg>
