<svg xmlns="http://www.w3.org/2000/svg" width="64" height="64" fill="none">
  <path fill="#E05488" fill-rule="evenodd" d="M13.617 0C6.097 0 0 6.097 0 13.617v36.766C0 57.903 6.097 64 13.617 64h36.766C57.903 64 64 57.904 64 50.383V13.617C64 6.097 57.904 0 50.383 0H13.617Zm.694 21.746c-1.824 3.132-2.736 6.55-2.736 10.254 0 3.704.912 7.122 2.737 10.254a20.281 20.281 0 0 0 7.434 7.434c3.132 1.825 6.55 2.737 10.254 2.737 3.704 0 7.122-.912 10.254-2.736a20.281 20.281 0 0 0 7.435-7.435c1.824-3.132 2.737-6.55 2.737-10.254 0-3.704-.913-7.122-2.737-10.254a20.281 20.281 0 0 0-7.435-7.434c-3.132-1.825-6.55-2.737-10.254-2.737-3.704 0-7.122.912-10.254 2.737a20.281 20.281 0 0 0-7.434 7.434Zm4.944 21.488c-2.86-3.24-4.29-6.986-4.29-11.234 0-.109.007-.245.02-.409.014-.163.021-.3.021-.408.518.027 1.307.04 2.37.04 5.446 0 10.512-.748 15.196-2.246.381.763.776 1.62 1.185 2.574-2.696.599-5.46 2.056-8.293 4.37-2.832 2.316-4.902 4.753-6.21 7.313Zm-1.104-15.36c-1.17 0-2.056-.027-2.655-.082a17.44 17.44 0 0 1 3.248-6.413c1.539-1.934 3.384-3.445 5.535-4.535 2.479 2.451 4.753 5.515 6.822 9.192-4.085 1.225-8.401 1.838-12.95 1.838ZM32 49.034c-3.867 0-7.34-1.197-10.417-3.594 1.226-2.424 3.112-4.739 5.658-6.945 2.546-2.206 5.072-3.581 7.578-4.126a59.985 59.985 0 0 1 3.186 13.522c-1.988.763-3.99 1.144-6.005 1.144Zm2.492-24.224c-2.043-3.704-4.262-6.795-6.659-9.273A15.683 15.683 0 0 1 32 14.965c4.085 0 7.707 1.307 10.866 3.922-1.879 2.396-4.67 4.37-8.374 5.923Zm2.86 6.21a53.984 53.984 0 0 0-1.39-3.31c4.222-1.851 7.218-4.098 8.988-6.74 2.45 2.887 3.785 6.182 4.003 9.886a102.278 102.278 0 0 0-5.024-.122c-2.37 0-4.562.095-6.578.286Zm3.84 15.278a58.632 58.632 0 0 0-2.82-12.419 72.505 72.505 0 0 1 5.107-.204c1.634 0 3.445.068 5.433.204a16.499 16.499 0 0 1-2.45 7.067 17.045 17.045 0 0 1-5.27 5.352Z" clip-rule="evenodd"/>
</svg>
