<svg width="64" height="64" fill="none" xmlns="http://www.w3.org/2000/svg"><path fill-rule="evenodd" clip-rule="evenodd" d="M13.62 0C6.1 0 0 6.1 0 13.62v36.76C0 57.9 6.1 64 13.62 64h36.76C57.9 64 64 57.9 64 50.38V13.62C64 6.1 57.9 0 50.38 0H13.62Zm.7 21.75A20.01 20.01 0 0 0 11.56 32c0 3.7.92 7.12 2.74 10.25A20.28 20.28 0 0 0 32 52.43 20.28 20.28 0 0 0 52.43 32 20.28 20.28 0 0 0 32 11.57a20.28 20.28 0 0 0-17.69 10.17Zm4.93 21.48a16.47 16.47 0 0 1-4.24-12.05c.51.03 1.3.04 2.37.04 5.44 0 10.5-.75 15.2-2.24.37.76.77 1.62 1.18 2.57-2.7.6-5.46 2.06-8.3 4.37a23.38 23.38 0 0 0-6.2 7.31Zm-1.1-15.36c-1.17 0-2.05-.02-2.65-.08a17.44 17.44 0 0 1 8.78-10.95 41.36 41.36 0 0 1 6.82 9.2 44.83 44.83 0 0 1-12.95 1.83ZM32 49.03c-3.87 0-7.34-1.2-10.42-3.59a23.17 23.17 0 0 1 5.66-6.94c2.55-2.21 5.07-3.59 7.58-4.13A59.98 59.98 0 0 1 38 47.89 16.66 16.66 0 0 1 32 49.03Zm2.5-24.22a43.41 43.41 0 0 0-6.67-9.27 16.56 16.56 0 0 1 15.03 3.35c-1.87 2.4-4.66 4.37-8.37 5.92Zm2.85 6.21a53.98 53.98 0 0 0-1.39-3.3c4.22-1.86 7.22-4.1 8.99-6.7a16.4 16.4 0 0 1 4 9.89c-1.66-.09-3.33-.13-5.02-.13-2.37 0-4.56.1-6.58.29ZM41.2 46.3a58.63 58.63 0 0 0-2.82-12.42c1.9-.14 3.61-.2 5.1-.2 1.64 0 3.45.06 5.44.2A17.05 17.05 0 0 1 41.2 46.3Z" fill="#fff"/></svg>
