<svg xmlns="http://www.w3.org/2000/svg" width="72" height="72" fill="none">
  <rect width="72" height="72" fill="#fff" rx="36"/>
  <path fill="#5C4EFC" fill-rule="evenodd" d="M36 56c11.046 0 20-8.954 20-20s-8.954-20-20-20-20 8.954-20 20 8.954 20 20 20Zm12.728-32.728a17.998 17.998 0 0 1 3.66 5.282c.702 1.6-.511 3.504-2.291 3.504-1.07 0-1.895-.776-2.378-1.727-1.5-2.952-3.926-5.226-7.32-5.226-4.829 0-9.382 4.95-13.029 7.568-1.05.685-1.962 1.338-3.294 1.338a4.453 4.453 0 0 1-3.788-6.793A17.995 17.995 0 0 1 36 18a18 18 0 0 1 12.728 5.272ZM23.27 48.728a17.994 17.994 0 0 1-3.66-5.282c-.703-1.6.51-3.504 2.29-3.504 1.112 0 1.87.808 2.379 1.727 1.56 2.813 3.926 5.226 7.32 5.226 4.988 0 9.863-5.281 13.571-7.954.708-.51 1.713-.952 2.751-.952a4.453 4.453 0 0 1 3.789 6.793A17.995 17.995 0 0 1 35.998 54a18 18 0 0 1-12.728-5.272Z" clip-rule="evenodd"/>
</svg>
