<svg xmlns="http://www.w3.org/2000/svg" width="268" height="68" fill="none">
  <g clip-path="url(#a)">
    <path fill="#171A24" d="M0 0h268v68H0z"/>
    <path fill="url(#b)" fill-rule="evenodd" d="M479.397 490.06c-39.371-11.711-84.082-10.988-116.295-36.48-32.253-25.525-30.783-78.593-62.384-104.923-56.015-46.671-149.277-43.782-189.273-104.756-36.043-54.949-33.731-134.722-7.29-194.904 26.52-60.362 101.64-80.905 148.735-127.034 46.587-45.63 67.909-120.748 128.588-144.597 60.633-23.83 127.259 19.143 192.394 18.441 69.749-.751 148.638-62.808 205.729-22.728 60.908 42.76 23.235 148.904 63.327 211.615 34.349 53.73 148.696 54.559 147.614 118.337-1.276 75.225-138.546 89.158-152.39 163.112-13.262 70.838 130.772 140.341 85.141 196.116-48.993 59.885-152.552-35.311-228.533-20.847-41.706 7.939-53.844 73.129-95.256 82.484-41.025 9.267-79.799-21.847-120.107-33.836Z" clip-rule="evenodd"/>
  </g>
  <defs>
    <linearGradient id="b" x1="989.136" x2="115.439" y1="230.898" y2="-3.208" gradientUnits="userSpaceOnUse">
      <stop stop-color="#667EEA"/>
      <stop offset="1" stop-color="#764BA2"/>
    </linearGradient>
    <clipPath id="a">
      <path fill="#fff" d="M0 0h268v68H0z"/>
    </clipPath>
  </defs>
</svg>
