<svg xmlns="http://www.w3.org/2000/svg" width="708" height="204" fill="none">
  <g clip-path="url(#a)">
    <path fill="#171A24" d="M0 0h708v204H0z"/>
    <path fill="url(#b)" fill-rule="evenodd" d="M514.353 626.09c-40.129-1.096-82.154 10.896-119.012-5.021-36.904-15.937-48.94-66.406-85.431-83.268-64.685-29.89-151.994-3.573-205.175-51.016-47.924-42.755-65.92-118.647-56.182-182.148 9.767-63.691 75.484-102.085 108.275-157.544 32.436-54.86 33.564-131.165 84.814-169.028 51.21-37.834 124.976-14.12 186.287-31.257 65.654-18.352 124.429-96.89 188.462-73.494C684.705-101.727 675.99 8.004 729.7 57.064c46.017 42.032 154.173 13.89 169.284 74.372 17.823 71.336-108.238 119.212-102.601 192.527 5.4 70.226 158.951 99.406 129.983 163.6-31.103 68.925-152.944 5.254-221.012 38.127-37.363 18.044-32.332 82.656-69.06 101.961-36.383 19.126-80.857-.438-121.941-1.561Z" clip-rule="evenodd"/>
  </g>
  <defs>
    <linearGradient id="b" x1="554.056" x2="554.056" y1="232.299" y2="54.476" gradientUnits="userSpaceOnUse">
      <stop stop-color="#C0A202"/>
      <stop offset="1" stop-color="#C0A202" stop-opacity="0"/>
    </linearGradient>
    <clipPath id="a">
      <path fill="#fff" d="M0 0h708v204H0z"/>
    </clipPath>
  </defs>
</svg>
